<?xml version="1.0" encoding="UTF-8"?>
<svg id="_Слой_1" data-name="Слой 1" xmlns="http://www.w3.org/2000/svg" xmlns:xlink="http://www.w3.org/1999/xlink" viewBox="0 0 390 320">
  <defs>
    <style>
      .cls-1 {
        clip-path: url(#clippath-20);
      }

      .cls-2 {
        clip-path: url(#clippath-11);
      }

      .cls-3 {
        clip-path: url(#clippath-16);
      }

      .cls-4 {
        fill: #fff;
      }

      .cls-5 {
        stroke-linecap: round;
        stroke-miterlimit: 10;
      }

      .cls-5, .cls-6, .cls-7, .cls-8 {
        stroke: #000;
      }

      .cls-5, .cls-6, .cls-9, .cls-10, .cls-8 {
        fill: none;
      }

      .cls-6, .cls-7, .cls-9 {
        stroke-linejoin: round;
      }

      .cls-6, .cls-9, .cls-8 {
        stroke-linecap: square;
      }

      .cls-11 {
        font-family: CambriaMath, 'Cambria Math';
        letter-spacing: .26em;
      }

      .cls-11, .cls-12 {
        font-size: 12px;
      }

      .cls-13 {
        letter-spacing: -.02em;
      }

      .cls-14 {
        clip-path: url(#clippath-2);
      }

      .cls-15 {
        clip-path: url(#clippath-13);
      }

      .cls-16 {
        clip-path: url(#clippath-25);
      }

      .cls-17 {
        clip-path: url(#clippath-15);
      }

      .cls-18 {
        clip-path: url(#clippath-6);
      }

      .cls-19 {
        clip-path: url(#clippath-26);
      }

      .cls-7, .cls-9, .cls-8 {
        stroke-width: .8px;
      }

      .cls-9 {
        stroke: #b0b0b0;
      }

      .cls-20 {
        clip-path: url(#clippath-7);
      }

      .cls-21 {
        clip-path: url(#clippath-21);
      }

      .cls-22 {
        clip-path: url(#clippath-1);
      }

      .cls-23 {
        clip-path: url(#clippath-4);
      }

      .cls-24 {
        clip-path: url(#clippath-27);
      }

      .cls-25 {
        clip-path: url(#clippath-12);
      }

      .cls-12 {
        font-family: TimesNewRomanPSMT, 'Times New Roman';
      }

      .cls-26 {
        clip-path: url(#clippath-24);
      }

      .cls-27 {
        clip-path: url(#clippath-30);
      }

      .cls-28 {
        clip-path: url(#clippath-22);
      }

      .cls-29 {
        clip-path: url(#clippath-9);
      }

      .cls-30 {
        clip-path: url(#clippath);
      }

      .cls-31 {
        clip-path: url(#clippath-19);
      }

      .cls-32 {
        clip-path: url(#clippath-3);
      }

      .cls-33 {
        clip-path: url(#clippath-8);
      }

      .cls-34 {
        clip-path: url(#clippath-29);
      }

      .cls-35 {
        clip-path: url(#clippath-18);
      }

      .cls-36 {
        clip-path: url(#clippath-14);
      }

      .cls-37 {
        clip-path: url(#clippath-17);
      }

      .cls-38 {
        clip-path: url(#clippath-5);
      }

      .cls-39 {
        letter-spacing: -.04em;
      }

      .cls-40 {
        clip-path: url(#clippath-10);
      }

      .cls-41 {
        clip-path: url(#clippath-23);
      }

      .cls-42 {
        clip-path: url(#clippath-28);
      }
    </style>
    <clipPath id="clippath">
      <rect class="cls-10" x="27.6" y="15.87" width="357.12" height="266.11"/>
    </clipPath>
    <clipPath id="clippath-1">
      <rect class="cls-10" x="27.6" y="15.87" width="357.12" height="266.11"/>
    </clipPath>
    <clipPath id="clippath-2">
      <rect class="cls-10" x="27.6" y="15.87" width="357.12" height="266.11"/>
    </clipPath>
    <clipPath id="clippath-3">
      <rect class="cls-10" x="27.6" y="15.87" width="357.12" height="266.11"/>
    </clipPath>
    <clipPath id="clippath-4">
      <rect class="cls-10" x="27.6" y="15.87" width="357.12" height="266.11"/>
    </clipPath>
    <clipPath id="clippath-5">
      <rect class="cls-10" x="27.6" y="15.87" width="357.12" height="266.11"/>
    </clipPath>
    <clipPath id="clippath-6">
      <rect class="cls-10" x="27.6" y="15.87" width="357.12" height="266.11"/>
    </clipPath>
    <clipPath id="clippath-7">
      <rect class="cls-10" x="27.6" y="15.87" width="357.12" height="266.11"/>
    </clipPath>
    <clipPath id="clippath-8">
      <rect class="cls-10" x="27.6" y="15.87" width="357.12" height="266.11"/>
    </clipPath>
    <clipPath id="clippath-9">
      <rect class="cls-10" x="27.6" y="15.87" width="357.12" height="266.11"/>
    </clipPath>
    <clipPath id="clippath-10">
      <rect class="cls-10" x="27.6" y="15.87" width="357.12" height="266.11"/>
    </clipPath>
    <clipPath id="clippath-11">
      <rect class="cls-10" x="27.6" y="15.87" width="357.12" height="266.11"/>
    </clipPath>
    <clipPath id="clippath-12">
      <rect class="cls-10" x="27.6" y="15.87" width="357.12" height="266.11"/>
    </clipPath>
    <clipPath id="clippath-13">
      <rect class="cls-10" x="27.6" y="15.87" width="357.12" height="266.11"/>
    </clipPath>
    <clipPath id="clippath-14">
      <rect class="cls-10" x="27.6" y="15.87" width="357.12" height="266.11"/>
    </clipPath>
    <clipPath id="clippath-15">
      <rect class="cls-10" x="27.6" y="15.87" width="357.12" height="266.11"/>
    </clipPath>
    <clipPath id="clippath-16">
      <rect class="cls-10" x="27.6" y="15.87" width="357.12" height="266.11"/>
    </clipPath>
    <clipPath id="clippath-17">
      <rect class="cls-10" x="27.6" y="15.87" width="357.12" height="266.11"/>
    </clipPath>
    <clipPath id="clippath-18">
      <rect class="cls-10" x="27.6" y="15.87" width="357.12" height="266.11"/>
    </clipPath>
    <clipPath id="clippath-19">
      <rect class="cls-10" x="27.6" y="15.87" width="357.12" height="266.11"/>
    </clipPath>
    <clipPath id="clippath-20">
      <rect class="cls-10" x="27.6" y="15.87" width="357.12" height="266.11"/>
    </clipPath>
    <clipPath id="clippath-21">
      <rect class="cls-10" x="27.6" y="15.87" width="357.12" height="266.11"/>
    </clipPath>
    <clipPath id="clippath-22">
      <rect class="cls-10" x="27.6" y="15.87" width="357.12" height="266.11"/>
    </clipPath>
    <clipPath id="clippath-23">
      <rect class="cls-10" x="27.6" y="15.87" width="357.12" height="266.11"/>
    </clipPath>
    <clipPath id="clippath-24">
      <rect class="cls-10" x="27.6" y="15.87" width="357.12" height="266.11"/>
    </clipPath>
    <clipPath id="clippath-25">
      <rect class="cls-10" x="27.6" y="15.87" width="357.12" height="266.11"/>
    </clipPath>
    <clipPath id="clippath-26">
      <rect class="cls-10" x="27.6" y="15.87" width="357.12" height="266.11"/>
    </clipPath>
    <clipPath id="clippath-27">
      <rect class="cls-10" x="27.6" y="15.87" width="357.12" height="266.11"/>
    </clipPath>
    <clipPath id="clippath-28">
      <rect class="cls-10" x="27.6" y="15.87" width="357.12" height="266.11"/>
    </clipPath>
    <clipPath id="clippath-29">
      <rect class="cls-10" x="27.6" y="15.87" width="357.12" height="266.11"/>
    </clipPath>
    <clipPath id="clippath-30">
      <rect class="cls-10" x="27.6" y="15.87" width="357.12" height="266.11"/>
    </clipPath>
  </defs>
  <path class="cls-4" d="m-30,320h460.8V-25.6H-30v345.6Z"/>
  <path class="cls-4" d="m27.6,281.98h357.12V15.87H27.6v266.11Z"/>
  <g id="line2d_1" data-name="line2d 1">
    <g class="cls-30">
      <path class="cls-9" d="m27.6,281.98V15.87"/>
    </g>
  </g>
  <g id="line2d_2" data-name="line2d 2">
    <path id="m819b226b0c" class="cls-7" d="m27.6,281.98v3.5"/>
  </g>
  <g id="xtick_2" data-name="xtick 2">
    <g id="line2d_3" data-name="line2d 3">
      <g class="cls-22">
        <path class="cls-9" d="m70.91,281.98V15.87"/>
      </g>
    </g>
    <g id="line2d_4" data-name="line2d 4">
      <path id="m819b226b0c-2" data-name="m819b226b0c" class="cls-7" d="m70.91,281.98v3.5"/>
    </g>
    <g id="text_2" data-name="text 2">
      <path id="TimesNewRomanPSMT-35" d="m73.12,289.37l-.46,1h-2.39l-.52,1.06c1.03.15,1.86.54,2.46,1.15.52.53.78,1.16.78,1.87,0,.42-.08.8-.25,1.16-.17.35-.38.66-.64.91-.26.25-.54.45-.86.6-.45.21-.91.32-1.38.32s-.82-.08-1.04-.24c-.22-.16-.32-.34-.32-.54,0-.11.04-.21.13-.29.09-.08.2-.13.34-.13.1,0,.19.02.27.05s.21.11.39.24c.29.2.59.3.89.3.46,0,.86-.17,1.2-.52.35-.35.52-.77.52-1.26s-.15-.93-.46-1.34c-.31-.42-.73-.74-1.28-.96-.43-.18-1.01-.28-1.74-.31l1.52-3.09h2.85Z"/>
    </g>
  </g>
  <g id="xtick_3" data-name="xtick 3">
    <g id="line2d_5" data-name="line2d 5">
      <g class="cls-14">
        <path class="cls-9" d="m114.22,281.98V15.87"/>
      </g>
    </g>
    <g id="line2d_6" data-name="line2d 6">
      <path id="m819b226b0c-3" data-name="m819b226b0c" class="cls-7" d="m114.22,281.98v3.5"/>
    </g>
    <g id="text_3" data-name="text 3">
      <g>
        <path id="TimesNewRomanPSMT-31" d="m109.62,290.15l1.93-.94h.19v6.71c0,.45.02.72.06.83.04.11.11.19.23.25.12.06.36.09.72.1v.22h-2.99v-.22c.37,0,.62-.04.73-.1.11-.06.19-.13.23-.23.04-.1.07-.38.07-.86v-4.29c0-.58-.02-.95-.06-1.11-.03-.13-.08-.22-.15-.28s-.16-.09-.26-.09c-.15,0-.35.06-.6.18l-.09-.18Z"/>
        <path id="TimesNewRomanPSMT-30" d="m114.65,293.39c0-.91.14-1.69.41-2.34.27-.65.64-1.14,1.09-1.46.35-.25.72-.38,1.09-.38.61,0,1.16.31,1.64.93.61.77.91,1.81.91,3.13,0,.92-.13,1.7-.4,2.35-.26.64-.6,1.11-1.02,1.4-.41.29-.81.44-1.19.44-.76,0-1.39-.45-1.89-1.34-.43-.75-.64-1.66-.64-2.72Zm1.15.15c0,1.09.13,1.99.4,2.68.22.58.56.87,1,.87.21,0,.43-.09.65-.28.23-.19.4-.51.52-.95.18-.67.27-1.62.27-2.84,0-.91-.09-1.66-.28-2.27-.14-.45-.32-.77-.54-.96-.16-.13-.35-.19-.58-.19-.27,0-.5.12-.71.36-.28.32-.47.83-.57,1.53-.1.7-.15,1.38-.15,2.05Z"/>
      </g>
    </g>
  </g>
  <g id="xtick_4" data-name="xtick 4">
    <g id="line2d_7" data-name="line2d 7">
      <g class="cls-32">
        <path class="cls-9" d="m157.52,281.98V15.87"/>
      </g>
    </g>
    <g id="line2d_8" data-name="line2d 8">
      <path id="m819b226b0c-4" data-name="m819b226b0c" class="cls-7" d="m157.52,281.98v3.5"/>
    </g>
    <g id="text_4" data-name="text 4">
      <g>
        <path id="TimesNewRomanPSMT-31-2" data-name="TimesNewRomanPSMT-31" d="m152.93,290.15l1.93-.94h.19v6.71c0,.45.02.72.06.83.04.11.11.19.23.25.12.06.36.09.72.1v.22h-2.99v-.22c.37,0,.62-.04.73-.1.11-.06.19-.13.23-.23.04-.1.07-.38.07-.86v-4.29c0-.58-.02-.95-.06-1.11-.03-.13-.08-.22-.15-.28s-.16-.09-.26-.09c-.15,0-.35.06-.6.18l-.09-.18Z"/>
        <path id="TimesNewRomanPSMT-35-2" data-name="TimesNewRomanPSMT-35" d="m162.73,289.37l-.46,1h-2.39l-.52,1.06c1.03.15,1.86.54,2.46,1.15.52.53.78,1.16.78,1.87,0,.42-.08.8-.25,1.16-.17.35-.38.66-.64.91-.26.25-.54.45-.86.6-.45.21-.91.32-1.38.32s-.82-.08-1.04-.24c-.22-.16-.32-.34-.32-.54,0-.11.04-.21.13-.29.09-.08.2-.13.34-.13.1,0,.19.02.27.05s.21.11.39.24c.29.2.59.3.89.3.46,0,.86-.17,1.2-.52.35-.35.52-.77.52-1.26s-.15-.93-.46-1.34c-.31-.42-.73-.74-1.28-.96-.43-.18-1.01-.28-1.74-.31l1.52-3.09h2.85Z"/>
      </g>
    </g>
  </g>
  <g id="xtick_5" data-name="xtick 5">
    <g id="line2d_9" data-name="line2d 9">
      <g class="cls-23">
        <path class="cls-9" d="m200.83,281.98V15.87"/>
      </g>
    </g>
    <g id="line2d_10" data-name="line2d 10">
      <path id="m819b226b0c-5" data-name="m819b226b0c" class="cls-7" d="m200.83,281.98v3.5"/>
    </g>
    <g id="text_5" data-name="text 5">
      <g>
        <path id="TimesNewRomanPSMT-32" d="m200.33,295.79l-.55,1.53h-4.69v-.22c1.38-1.26,2.35-2.28,2.91-3.08.56-.8.84-1.53.84-2.19,0-.5-.15-.92-.46-1.24-.31-.32-.68-.49-1.11-.49-.39,0-.74.11-1.05.34-.31.23-.54.56-.69,1h-.22c.1-.72.35-1.28.75-1.66.4-.39.91-.58,1.51-.58.64,0,1.18.21,1.61.62.43.41.65.9.65,1.46,0,.4-.09.8-.28,1.21-.29.63-.76,1.3-1.41,2.01-.97,1.06-1.58,1.7-1.82,1.92h2.07c.42,0,.72-.02.89-.05.17-.03.32-.09.46-.19.14-.1.26-.23.36-.41h.22Z"/>
        <path id="TimesNewRomanPSMT-30-2" data-name="TimesNewRomanPSMT-30" d="m201.27,293.39c0-.91.14-1.69.41-2.34.27-.65.64-1.14,1.09-1.46.35-.25.72-.38,1.09-.38.61,0,1.16.31,1.64.93.61.77.91,1.81.91,3.13,0,.92-.13,1.7-.4,2.35-.26.64-.6,1.11-1.02,1.4-.41.29-.81.44-1.19.44-.76,0-1.39-.45-1.89-1.34-.43-.75-.64-1.66-.64-2.72Zm1.15.15c0,1.09.13,1.99.4,2.68.22.58.56.87,1,.87.21,0,.43-.09.65-.28.23-.19.4-.51.52-.95.18-.67.27-1.62.27-2.84,0-.91-.09-1.66-.28-2.27-.14-.45-.32-.77-.54-.96-.16-.13-.35-.19-.58-.19-.27,0-.5.12-.71.36-.28.32-.47.83-.57,1.53-.1.7-.15,1.38-.15,2.05Z"/>
      </g>
    </g>
  </g>
  <g id="xtick_6" data-name="xtick 6">
    <g id="line2d_11" data-name="line2d 11">
      <g class="cls-38">
        <path class="cls-9" d="m244.14,281.98V15.87"/>
      </g>
    </g>
    <g id="line2d_12" data-name="line2d 12">
      <path id="m819b226b0c-6" data-name="m819b226b0c" class="cls-7" d="m244.14,281.98v3.5"/>
    </g>
    <g id="text_6" data-name="text 6">
      <g>
        <path id="TimesNewRomanPSMT-32-2" data-name="TimesNewRomanPSMT-32" d="m243.64,295.79l-.55,1.53h-4.69v-.22c1.38-1.26,2.35-2.28,2.91-3.08.56-.8.84-1.53.84-2.19,0-.5-.15-.92-.46-1.24-.31-.32-.68-.49-1.11-.49-.39,0-.74.11-1.05.34-.31.23-.54.56-.69,1h-.22c.1-.72.35-1.28.75-1.66.4-.39.91-.58,1.51-.58.64,0,1.18.21,1.61.62.43.41.65.9.65,1.46,0,.4-.09.8-.28,1.21-.29.63-.76,1.3-1.41,2.01-.97,1.06-1.58,1.7-1.82,1.92h2.07c.42,0,.72-.02.89-.05.17-.03.32-.09.46-.19.14-.1.26-.23.36-.41h.22Z"/>
        <path id="TimesNewRomanPSMT-35-3" data-name="TimesNewRomanPSMT-35" d="m249.35,289.37l-.46,1h-2.39l-.52,1.06c1.03.15,1.86.54,2.46,1.15.52.53.78,1.16.78,1.87,0,.42-.08.8-.25,1.16-.17.35-.38.66-.64.91-.26.25-.54.45-.86.6-.45.21-.91.32-1.38.32s-.82-.08-1.04-.24c-.22-.16-.32-.34-.32-.54,0-.11.04-.21.13-.29.09-.08.2-.13.34-.13.1,0,.19.02.27.05s.21.11.39.24c.29.2.59.3.89.3.46,0,.86-.17,1.2-.52.35-.35.52-.77.52-1.26s-.15-.93-.46-1.34c-.31-.42-.73-.74-1.28-.96-.43-.18-1.01-.28-1.74-.31l1.52-3.09h2.85Z"/>
      </g>
    </g>
  </g>
  <g id="xtick_7" data-name="xtick 7">
    <g id="line2d_13" data-name="line2d 13">
      <g class="cls-18">
        <path class="cls-9" d="m287.45,281.98V15.87"/>
      </g>
    </g>
    <g id="line2d_14" data-name="line2d 14">
      <path id="m819b226b0c-7" data-name="m819b226b0c" class="cls-7" d="m287.45,281.98v3.5"/>
    </g>
    <g id="text_7" data-name="text 7">
      <g>
        <path id="TimesNewRomanPSMT-33" d="m282.06,290.88c.23-.53.51-.95.86-1.24.35-.29.78-.44,1.29-.44.64,0,1.12.21,1.46.62.26.31.39.64.39.99,0,.58-.36,1.18-1.09,1.79.49.19.86.46,1.11.82.25.36.37.77.37,1.25,0,.69-.22,1.28-.66,1.79-.57.66-1.4.98-2.48.98-.53,0-.9-.07-1.09-.2-.19-.13-.29-.28-.29-.43,0-.11.05-.21.14-.3.09-.09.2-.13.33-.13.1,0,.2.02.3.05.07.02.22.09.45.22.24.12.4.2.49.22.14.04.3.06.46.06.4,0,.74-.15,1.04-.46.29-.31.44-.67.44-1.09,0-.31-.07-.61-.2-.9-.1-.22-.21-.39-.33-.5-.17-.16-.4-.3-.69-.42-.29-.13-.59-.19-.9-.19h-.19v-.18c.31-.04.62-.15.93-.33.31-.18.54-.4.68-.66.14-.26.21-.54.21-.85,0-.4-.13-.73-.38-.97-.25-.25-.56-.37-.94-.37-.61,0-1.11.32-1.52.97l-.19-.09Z"/>
        <path id="TimesNewRomanPSMT-30-3" data-name="TimesNewRomanPSMT-30" d="m287.88,293.39c0-.91.14-1.69.41-2.34.27-.65.64-1.14,1.09-1.46.35-.25.72-.38,1.09-.38.61,0,1.16.31,1.64.93.61.77.91,1.81.91,3.13,0,.92-.13,1.7-.4,2.35-.26.64-.6,1.11-1.02,1.4-.41.29-.81.44-1.19.44-.76,0-1.39-.45-1.89-1.34-.43-.75-.64-1.66-.64-2.72Zm1.15.15c0,1.09.13,1.99.4,2.68.22.58.56.87,1,.87.21,0,.43-.09.65-.28.23-.19.4-.51.52-.95.18-.67.27-1.62.27-2.84,0-.91-.09-1.66-.28-2.27-.14-.45-.32-.77-.54-.96-.16-.13-.35-.19-.58-.19-.27,0-.5.12-.71.36-.28.32-.47.83-.57,1.53-.1.7-.15,1.38-.15,2.05Z"/>
      </g>
    </g>
  </g>
  <g id="xtick_8" data-name="xtick 8">
    <g id="line2d_15" data-name="line2d 15">
      <g class="cls-20">
        <path class="cls-9" d="m330.76,281.98V15.87"/>
      </g>
    </g>
    <g id="line2d_16" data-name="line2d 16">
      <path id="m819b226b0c-8" data-name="m819b226b0c" class="cls-7" d="m330.76,281.98v3.5"/>
    </g>
    <g id="text_8" data-name="text 8">
      <g>
        <path id="TimesNewRomanPSMT-33-2" data-name="TimesNewRomanPSMT-33" d="m325.37,290.88c.23-.53.51-.95.86-1.24.35-.29.78-.44,1.29-.44.64,0,1.12.21,1.46.62.26.31.39.64.39.99,0,.58-.36,1.18-1.09,1.79.49.19.86.46,1.11.82.25.36.37.77.37,1.25,0,.69-.22,1.28-.66,1.79-.57.66-1.4.98-2.48.98-.53,0-.9-.07-1.09-.2-.19-.13-.29-.28-.29-.43,0-.11.05-.21.14-.3.09-.09.2-.13.33-.13.1,0,.2.02.3.05.07.02.22.09.45.22.24.12.4.2.49.22.14.04.3.06.46.06.4,0,.74-.15,1.04-.46.29-.31.44-.67.44-1.09,0-.31-.07-.61-.2-.9-.1-.22-.21-.39-.33-.5-.17-.16-.4-.3-.69-.42-.29-.13-.59-.19-.9-.19h-.19v-.18c.31-.04.62-.15.93-.33.31-.18.54-.4.68-.66.14-.26.21-.54.21-.85,0-.4-.13-.73-.38-.97-.25-.25-.56-.37-.94-.37-.61,0-1.11.32-1.52.97l-.19-.09Z"/>
        <path id="TimesNewRomanPSMT-35-4" data-name="TimesNewRomanPSMT-35" d="m335.97,289.37l-.46,1h-2.39l-.52,1.06c1.03.15,1.86.54,2.46,1.15.52.53.78,1.16.78,1.87,0,.42-.08.8-.25,1.16-.17.35-.38.66-.64.91-.26.25-.54.45-.86.6-.45.21-.91.32-1.38.32s-.82-.08-1.04-.24c-.22-.16-.32-.34-.32-.54,0-.11.04-.21.13-.29.09-.08.2-.13.34-.13.1,0,.19.02.27.05s.21.11.39.24c.29.2.59.3.89.3.46,0,.86-.17,1.2-.52.35-.35.52-.77.52-1.26s-.15-.93-.46-1.34c-.31-.42-.73-.74-1.28-.96-.43-.18-1.01-.28-1.74-.31l1.52-3.09h2.85Z"/>
      </g>
    </g>
  </g>
  <g id="xtick_9" data-name="xtick 9">
    <g id="line2d_17" data-name="line2d 17">
      <g class="cls-33">
        <path class="cls-9" d="m374.07,281.98V15.87"/>
      </g>
    </g>
    <g id="line2d_18" data-name="line2d 18">
      <path id="m819b226b0c-9" data-name="m819b226b0c" class="cls-7" d="m374.07,281.98v3.5"/>
    </g>
    <g id="text_9" data-name="text 9">
      <g>
        <path id="TimesNewRomanPSMT-34" d="m373.65,294.39v.83h-1.07v2.1h-.97v-2.1h-3.36v-.75l3.69-5.26h.64v5.18h1.07Zm-2.03,0v-3.94l-2.79,3.94h2.79Z"/>
        <path id="TimesNewRomanPSMT-30-4" data-name="TimesNewRomanPSMT-30" d="m374.5,293.39c0-.91.14-1.69.41-2.34.27-.65.64-1.14,1.09-1.46.35-.25.72-.38,1.09-.38.61,0,1.16.31,1.64.93.61.77.91,1.81.91,3.13,0,.92-.13,1.7-.4,2.35-.26.64-.6,1.11-1.02,1.4-.41.29-.81.44-1.19.44-.76,0-1.39-.45-1.89-1.34-.43-.75-.64-1.66-.64-2.72Zm1.15.15c0,1.09.13,1.99.4,2.68.22.58.56.87,1,.87.21,0,.43-.09.65-.28.23-.19.4-.51.52-.95.18-.67.27-1.62.27-2.84,0-.91-.09-1.66-.28-2.27-.14-.45-.32-.77-.54-.96-.16-.13-.35-.19-.58-.19-.27,0-.5.12-.71.36-.28.32-.47.83-.57,1.53-.1.7-.15,1.38-.15,2.05Z"/>
      </g>
    </g>
  </g>
  <g id="text_10" data-name="text 10">
    <g>
      <path id="TimesNewRomanPSMT-44" d="m355.07,312.22v-.22h.3c.34,0,.57-.11.71-.32.09-.13.13-.42.13-.87v-5.13c0-.49-.05-.8-.16-.93-.15-.17-.38-.26-.68-.26h-.3v-.22h3.23c1.19,0,2.09.13,2.71.4.62.27,1.12.72,1.49,1.35.38.63.57,1.36.57,2.18,0,1.11-.34,2.03-1.01,2.77-.75.83-1.9,1.24-3.45,1.24h-3.55Zm2.27-.57c.5.11.91.16,1.25.16.91,0,1.66-.32,2.26-.95.6-.64.9-1.5.9-2.59s-.3-1.96-.9-2.6c-.6-.63-1.36-.95-2.3-.95-.35,0-.75.06-1.2.17v6.76Z"/>
      <path id="TimesNewRomanPSMT-2c" d="m364.18,314.21v-.26c.4-.13.71-.34.93-.62.22-.28.33-.57.33-.89,0-.07-.02-.14-.05-.19-.03-.03-.05-.05-.08-.05-.04,0-.14.04-.28.12-.07.04-.14.05-.22.05-.19,0-.34-.06-.46-.17-.11-.11-.17-.27-.17-.47s.07-.36.22-.49c.15-.14.32-.21.54-.21.26,0,.49.11.69.34.2.22.3.52.3.89,0,.4-.14.78-.42,1.12-.28.35-.72.62-1.33.82Z"/>
      <path id="TimesNewRomanPSMT-43c" d="m373.38,310.82l1.68-3.97h1.81v.22c-.26,0-.44.03-.53.08-.09.05-.16.12-.21.2-.05.08-.07.33-.07.76v2.85c0,.37.02.61.05.72.04.11.11.19.23.24.12.05.29.08.53.08v.22h-2.59v-.22c.32,0,.53-.06.64-.18.11-.12.16-.41.16-.86v-3.23l-1.9,4.49h-.21l-1.93-4.49v3.23c0,.37.02.61.06.72.04.11.12.19.23.24.11.05.29.08.53.08v.22h-2.05v-.22c.35,0,.57-.06.67-.19.1-.13.15-.41.15-.85v-2.85c0-.42-.02-.66-.07-.74-.04-.08-.11-.14-.2-.2-.09-.06-.27-.09-.55-.09v-.22h1.89l1.69,3.97Z"/>
      <path id="TimesNewRomanPSMT-43c-2" data-name="TimesNewRomanPSMT-43c" d="m380.97,310.82l1.68-3.97h1.81v.22c-.26,0-.44.03-.53.08-.09.05-.16.12-.21.2-.05.08-.07.33-.07.76v2.85c0,.37.02.61.05.72.04.11.11.19.23.24.12.05.29.08.53.08v.22h-2.59v-.22c.32,0,.53-.06.64-.18.11-.12.16-.41.16-.86v-3.23l-1.9,4.49h-.21l-1.93-4.49v3.23c0,.37.02.61.06.72.04.11.12.19.23.24.11.05.29.08.53.08v.22h-2.05v-.22c.35,0,.57-.06.67-.19.1-.13.15-.41.15-.85v-2.85c0-.42-.02-.66-.07-.74-.04-.08-.11-.14-.2-.2-.09-.06-.27-.09-.55-.09v-.22h1.89l1.69,3.97Z"/>
    </g>
  </g>
  <g id="line2d_19" data-name="line2d 19">
    <g class="cls-29">
      <path class="cls-9" d="m27.6,281.98h357.12"/>
    </g>
  </g>
  <g id="line2d_20" data-name="line2d 20">
    <path id="m674860db28" class="cls-7" d="m27.6,281.98h-3.5"/>
  </g>
  <g id="text_11" data-name="text 11">
    <path id="TimesNewRomanPSMT-30-5" data-name="TimesNewRomanPSMT-30" d="m15.03,293.39c0-.91.14-1.69.41-2.34.27-.65.64-1.14,1.09-1.46.35-.25.72-.38,1.09-.38.61,0,1.16.31,1.64.93.61.77.91,1.81.91,3.13,0,.92-.13,1.7-.4,2.35-.26.64-.6,1.11-1.02,1.4-.41.29-.81.44-1.19.44-.76,0-1.39-.45-1.89-1.34-.43-.75-.64-1.66-.64-2.72Zm1.15.15c0,1.09.13,1.99.4,2.68.22.58.56.87,1,.87.21,0,.43-.09.65-.28.23-.19.4-.51.52-.95.18-.67.27-1.62.27-2.84,0-.91-.09-1.66-.28-2.27-.14-.45-.32-.77-.54-.96-.16-.13-.35-.19-.58-.19-.27,0-.5.12-.71.36-.28.32-.47.83-.57,1.53-.1.7-.15,1.38-.15,2.05Z"/>
  </g>
  <g id="ytick_2" data-name="ytick 2">
    <g id="line2d_21" data-name="line2d 21">
      <g class="cls-40">
        <path class="cls-9" d="m27.6,236.78h357.12"/>
      </g>
    </g>
    <g id="line2d_22" data-name="line2d 22">
      <path id="m674860db28-2" data-name="m674860db28" class="cls-7" d="m27.6,236.78h-3.5"/>
    </g>
    <g id="text_12" data-name="text 12">
      <g>
        <path id="TimesNewRomanPSMT-32-3" data-name="TimesNewRomanPSMT-32" d="m14.1,239.41l-.55,1.53h-4.69v-.22c1.38-1.26,2.35-2.28,2.91-3.08.56-.8.84-1.53.84-2.19,0-.5-.15-.92-.46-1.24-.31-.32-.68-.49-1.11-.49-.39,0-.74.11-1.05.34-.31.23-.54.56-.69,1h-.22c.1-.72.35-1.28.75-1.66.4-.39.91-.58,1.51-.58.64,0,1.18.21,1.61.62.43.41.65.9.65,1.46,0,.4-.09.8-.28,1.21-.29.63-.76,1.3-1.41,2.01-.97,1.06-1.58,1.7-1.82,1.92h2.07c.42,0,.72-.02.89-.05.17-.03.32-.09.46-.19.14-.1.26-.23.36-.41h.22Z"/>
        <path id="TimesNewRomanPSMT-30-6" data-name="TimesNewRomanPSMT-30" d="m15.03,237.02c0-.91.14-1.69.41-2.34.27-.65.64-1.14,1.09-1.46.35-.25.72-.38,1.09-.38.61,0,1.16.31,1.64.93.61.77.91,1.81.91,3.13,0,.92-.13,1.7-.4,2.35-.26.64-.6,1.11-1.02,1.4-.41.29-.81.44-1.19.44-.76,0-1.39-.45-1.89-1.34-.43-.75-.64-1.66-.64-2.72Zm1.15.15c0,1.09.13,1.99.4,2.68.22.58.56.87,1,.87.21,0,.43-.09.65-.28.23-.19.4-.51.52-.95.18-.67.27-1.62.27-2.84,0-.91-.09-1.66-.28-2.27-.14-.45-.32-.77-.54-.96-.16-.13-.35-.19-.58-.19-.27,0-.5.12-.71.36-.28.32-.47.83-.57,1.53-.1.7-.15,1.38-.15,2.05Z"/>
      </g>
    </g>
  </g>
  <g id="ytick_3" data-name="ytick 3">
    <g id="line2d_23" data-name="line2d 23">
      <g class="cls-2">
        <path class="cls-9" d="m27.6,191.57h357.12"/>
      </g>
    </g>
    <g id="line2d_24" data-name="line2d 24">
      <path id="m674860db28-3" data-name="m674860db28" class="cls-7" d="m27.6,191.57h-3.5"/>
    </g>
    <g id="text_13" data-name="text 13">
      <g>
        <path id="TimesNewRomanPSMT-34-2" data-name="TimesNewRomanPSMT-34" d="m14.18,192.81v.83h-1.07v2.1h-.97v-2.1h-3.36v-.75l3.69-5.26h.64v5.18h1.07Zm-2.03,0v-3.94l-2.79,3.94h2.79Z"/>
        <path id="TimesNewRomanPSMT-30-7" data-name="TimesNewRomanPSMT-30" d="m15.03,191.81c0-.91.14-1.69.41-2.34.27-.65.64-1.14,1.09-1.46.35-.25.72-.38,1.09-.38.61,0,1.16.31,1.64.93.61.77.91,1.81.91,3.13,0,.92-.13,1.7-.4,2.35-.26.64-.6,1.11-1.02,1.4-.41.29-.81.44-1.19.44-.76,0-1.39-.45-1.89-1.34-.43-.75-.64-1.66-.64-2.72Zm1.15.15c0,1.09.13,1.99.4,2.68.22.58.56.87,1,.87.21,0,.43-.09.65-.28.23-.19.4-.51.52-.95.18-.67.27-1.62.27-2.84,0-.91-.09-1.66-.28-2.27-.14-.45-.32-.77-.54-.96-.16-.13-.35-.19-.58-.19-.27,0-.5.12-.71.36-.28.32-.47.83-.57,1.53-.1.7-.15,1.38-.15,2.05Z"/>
      </g>
    </g>
  </g>
  <g id="ytick_4" data-name="ytick 4">
    <g id="line2d_25" data-name="line2d 25">
      <g class="cls-25">
        <path class="cls-9" d="m27.6,146.37h357.12"/>
      </g>
    </g>
    <g id="line2d_26" data-name="line2d 26">
      <path id="m674860db28-4" data-name="m674860db28" class="cls-7" d="m27.6,146.37h-3.5"/>
    </g>
    <g id="text_14" data-name="text 14">
      <g>
        <path id="TimesNewRomanPSMT-36" d="m13.98,142.42v.22c-.52.05-.94.15-1.26.31-.33.15-.65.39-.97.7-.32.32-.58.67-.79,1.06s-.38.85-.52,1.39c.56-.39,1.13-.58,1.69-.58s1.01.22,1.41.66c.4.44.6,1,.6,1.69s-.2,1.27-.6,1.82c-.48.66-1.12,1-1.92,1-.54,0-1-.18-1.38-.54-.74-.7-1.11-1.6-1.11-2.72,0-.71.14-1.39.43-2.02.28-.64.69-1.21,1.22-1.71.53-.5,1.04-.83,1.52-1,.49-.17.94-.26,1.36-.26h.34Zm-3.64,4.1c-.07.53-.1.95-.1,1.28,0,.37.07.78.21,1.22.14.44.34.79.62,1.04.2.18.44.28.73.28.34,0,.64-.16.91-.48.27-.32.4-.78.4-1.37,0-.67-.13-1.24-.4-1.73-.27-.49-.64-.73-1.13-.73-.15,0-.31.03-.48.09s-.42.2-.75.4Z"/>
        <path id="TimesNewRomanPSMT-30-8" data-name="TimesNewRomanPSMT-30" d="m15.03,146.61c0-.91.14-1.69.41-2.34.27-.65.64-1.14,1.09-1.46.35-.25.72-.38,1.09-.38.61,0,1.16.31,1.64.93.61.77.91,1.81.91,3.13,0,.92-.13,1.7-.4,2.35-.26.64-.6,1.11-1.02,1.4-.41.29-.81.44-1.19.44-.76,0-1.39-.45-1.89-1.34-.43-.75-.64-1.66-.64-2.72Zm1.15.15c0,1.09.13,1.99.4,2.68.22.58.56.87,1,.87.21,0,.43-.09.65-.28.23-.19.4-.51.52-.95.18-.67.27-1.62.27-2.84,0-.91-.09-1.66-.28-2.27-.14-.45-.32-.77-.54-.96-.16-.13-.35-.19-.58-.19-.27,0-.5.12-.71.36-.28.32-.47.83-.57,1.53-.1.7-.15,1.38-.15,2.05Z"/>
      </g>
    </g>
  </g>
  <g id="ytick_5" data-name="ytick 5">
    <g id="line2d_27" data-name="line2d 27">
      <g class="cls-15">
        <path class="cls-9" d="m27.6,101.16h357.12"/>
      </g>
    </g>
    <g id="line2d_28" data-name="line2d 28">
      <path id="m674860db28-5" data-name="m674860db28" class="cls-7" d="m27.6,101.16h-3.5"/>
    </g>
    <g id="text_15" data-name="text 15">
      <g>
        <path id="TimesNewRomanPSMT-38" d="m10.9,101.33c-.63-.52-1.03-.93-1.22-1.24-.18-.31-.27-.64-.27-.97,0-.52.2-.96.6-1.33.4-.37.93-.56,1.59-.56s1.16.17,1.55.52c.39.35.59.74.59,1.19,0,.3-.11.6-.32.91s-.65.67-1.32,1.09c.69.53,1.14.95,1.36,1.25.3.4.44.82.44,1.26,0,.56-.21,1.04-.64,1.43-.43.4-.98.59-1.67.59-.75,0-1.34-.24-1.76-.71-.33-.38-.5-.79-.5-1.24,0-.35.12-.7.35-1.04.24-.35.64-.73,1.22-1.15Zm.92-.63c.47-.42.77-.75.89-1,.13-.25.19-.52.19-.83,0-.41-.12-.73-.35-.96-.23-.23-.54-.35-.94-.35s-.72.12-.97.35c-.25.23-.37.5-.37.81,0,.2.05.41.15.61.1.2.25.4.44.58l.96.8Zm-.64.85c-.32.27-.56.57-.72.89-.16.32-.23.67-.23,1.05,0,.5.14.91.41,1.21.27.3.63.45,1.05.45s.76-.12,1.01-.36c.25-.24.38-.53.38-.87,0-.28-.07-.53-.22-.76-.28-.41-.84-.96-1.68-1.62Z"/>
        <path id="TimesNewRomanPSMT-30-9" data-name="TimesNewRomanPSMT-30" d="m15.03,101.4c0-.91.14-1.69.41-2.34.27-.65.64-1.14,1.09-1.46.35-.25.72-.38,1.09-.38.61,0,1.16.31,1.64.93.61.77.91,1.81.91,3.13,0,.92-.13,1.7-.4,2.35-.26.64-.6,1.11-1.02,1.4-.41.29-.81.44-1.19.44-.76,0-1.39-.45-1.89-1.34-.43-.75-.64-1.66-.64-2.72Zm1.15.15c0,1.09.13,1.99.4,2.68.22.58.56.87,1,.87.21,0,.43-.09.65-.28.23-.19.4-.51.52-.95.18-.67.27-1.62.27-2.84,0-.91-.09-1.66-.28-2.27-.14-.45-.32-.77-.54-.96-.16-.13-.35-.19-.58-.19-.27,0-.5.12-.71.36-.28.32-.47.83-.57,1.53-.1.7-.15,1.38-.15,2.05Z"/>
      </g>
    </g>
  </g>
  <g id="ytick_6" data-name="ytick 6">
    <g id="line2d_29" data-name="line2d 29">
      <g class="cls-36">
        <path class="cls-9" d="m27.6,55.96h357.12"/>
      </g>
    </g>
    <g id="line2d_30" data-name="line2d 30">
      <path id="m674860db28-6" data-name="m674860db28" class="cls-7" d="m27.6,55.96h-3.5"/>
    </g>
    <g id="text_16" data-name="text 16">
      <g>
        <path id="TimesNewRomanPSMT-31-3" data-name="TimesNewRomanPSMT-31" d="m4.01,52.96l1.93-.94h.19v6.71c0,.45.02.72.06.83.04.11.11.19.23.25.12.06.36.09.72.1v.22h-2.99v-.22c.37,0,.62-.04.73-.1.11-.06.19-.13.23-.23.04-.1.07-.38.07-.86v-4.29c0-.58-.02-.95-.06-1.11-.03-.13-.08-.22-.15-.28s-.16-.09-.26-.09c-.15,0-.35.06-.6.18l-.09-.18Z"/>
        <path id="TimesNewRomanPSMT-30-10" data-name="TimesNewRomanPSMT-30" d="m9.03,56.2c0-.91.14-1.69.41-2.34.27-.65.64-1.14,1.09-1.46.35-.25.72-.38,1.09-.38.61,0,1.16.31,1.64.93.61.77.91,1.81.91,3.13,0,.92-.13,1.7-.4,2.35-.26.64-.6,1.11-1.02,1.4-.41.29-.81.44-1.19.44-.76,0-1.39-.45-1.89-1.34-.43-.75-.64-1.66-.64-2.72Zm1.15.15c0,1.09.13,1.99.4,2.68.22.58.56.87,1,.87.21,0,.43-.09.65-.28.23-.19.4-.51.52-.95.18-.67.27-1.62.27-2.84,0-.91-.09-1.66-.28-2.27-.14-.45-.32-.77-.54-.96-.16-.13-.35-.19-.58-.19-.27,0-.5.12-.71.36-.28.32-.47.83-.57,1.53-.1.7-.15,1.38-.15,2.05Z"/>
        <path id="TimesNewRomanPSMT-30-11" data-name="TimesNewRomanPSMT-30" d="m15.03,56.2c0-.91.14-1.69.41-2.34.27-.65.64-1.14,1.09-1.46.35-.25.72-.38,1.09-.38.61,0,1.16.31,1.64.93.61.77.91,1.81.91,3.13,0,.92-.13,1.7-.4,2.35-.26.64-.6,1.11-1.02,1.4-.41.29-.81.44-1.19.44-.76,0-1.39-.45-1.89-1.34-.43-.75-.64-1.66-.64-2.72Zm1.15.15c0,1.09.13,1.99.4,2.68.22.58.56.87,1,.87.21,0,.43-.09.65-.28.23-.19.4-.51.52-.95.18-.67.27-1.62.27-2.84,0-.91-.09-1.66-.28-2.27-.14-.45-.32-.77-.54-.96-.16-.13-.35-.19-.58-.19-.27,0-.5.12-.71.36-.28.32-.47.83-.57,1.53-.1.7-.15,1.38-.15,2.05Z"/>
      </g>
    </g>
  </g>
  <g class="cls-17">
    <path class="cls-6" d="m218.16,140.23v-5.65h0"/>
  </g>
  <g class="cls-3">
    <path class="cls-6" d="m215.56,134.58h5.21"/>
  </g>
  <g class="cls-37">
    <path class="cls-6" d="m215.56,137.4h5.21"/>
  </g>
  <g class="cls-35">
    <path class="cls-6" d="m215.56,140.23h5.21"/>
  </g>
  <g class="cls-31">
    <path class="cls-6" d="m287.45,97.15v-18.79h0"/>
  </g>
  <g class="cls-1">
    <path class="cls-6" d="m284.85,78.36h5.21"/>
  </g>
  <g class="cls-21">
    <path class="cls-6" d="m284.85,87.75h5.21"/>
  </g>
  <g class="cls-28">
    <path class="cls-6" d="m284.85,97.15h5.21"/>
  </g>
  <g class="cls-41">
    <path class="cls-6" d="m330.76,65.53v-7.86h0"/>
  </g>
  <g class="cls-26">
    <path class="cls-6" d="m328.16,57.68h5.2"/>
  </g>
  <g class="cls-16">
    <path class="cls-6" d="m328.16,61.61h5.2"/>
  </g>
  <g class="cls-19">
    <path class="cls-6" d="m328.16,65.53h5.2"/>
  </g>
  <g class="cls-24">
    <path class="cls-6" d="m374.07,27.73v-5.94h0"/>
  </g>
  <g class="cls-42">
    <path class="cls-6" d="m371.47,21.8h5.2"/>
  </g>
  <g class="cls-34">
    <path class="cls-6" d="m371.47,24.76h5.2"/>
  </g>
  <g class="cls-27">
    <path class="cls-6" d="m371.47,27.73h5.2"/>
  </g>
  <path class="cls-8" d="m27.6,281.98V15.87"/>
  <path class="cls-8" d="m384.72,281.98V15.87"/>
  <path class="cls-8" d="m27.6,281.98h357.12"/>
  <path class="cls-8" d="m27.6,15.87h357.12"/>
  <line class="cls-5" x1="27.6" y1="281.98" x2="374.07" y2="26.02"/>
  <text class="cls-11" transform="translate(9.97 25.32)"><tspan x="0" y="0">𝝉</tspan></text>
  <text class="cls-12" transform="translate(31.17 25.32)"><tspan x="0" y="0">м</tspan><tspan class="cls-13" x="7.59" y="0">к</tspan><tspan x="13.12" y="0">с</tspan></text>
  <text class="cls-12" transform="translate(227.1 225.87)"><tspan class="cls-39" x="0" y="0">P</tspan><tspan x="6.23" y="0" xml:space="preserve"> = 0,95</tspan></text>
</svg>